<svg width="116" height="58" viewBox="0 0 116 58" fill="none" xmlns="http://www.w3.org/2000/svg">
<g clip-path="url(#clip0_3357_290)">
<path fill-rule="evenodd" clip-rule="evenodd" d="M40.5928 0H20.2964V15.5975C20.2964 16.6995 19.3997 17.5928 18.2936 17.5928H7.61004V29.0323C7.61004 29.7669 7.01126 30.3635 6.27386 30.3635H0V40.4748H10.1497V34.0895C10.1497 33.3548 10.7484 32.7583 11.4858 32.7583H22.836V22.215C22.836 21.1131 23.7327 20.2198 24.8388 20.2198H40.5957V0H40.5928Z" fill="#E60000"/>
<path d="M41.7461 32.7407H44.0468V42.9755H54.3027V45.2675H41.7461V32.7407Z" fill="#1F1F1F"/>
<path d="M97.1431 32.7583V33.3666L92.4001 39.0144L97.1431 44.6622V45.2704H94.6153L90.3236 40.1604H87.3592V45.2704H85.0408V32.7583H87.3592V37.8684H90.3236C91.0197 37.0338 91.7364 36.1817 92.4679 35.3148C93.1994 34.445 93.9162 33.5958 94.6123 32.7613H97.1401L97.1431 32.7583Z" fill="#1F1F1F"/>
<path d="M111.708 38.5619C111.708 38.8968 111.643 39.2113 111.516 39.4992C111.39 39.7901 111.213 40.0429 110.994 40.2632C110.773 40.4836 110.514 40.657 110.219 40.7834C109.921 40.9097 109.605 40.9744 109.269 40.9744H108.587L111.711 44.6739V45.2646H109.198L105.57 40.9744H101.452V45.2646H99.1487V32.7701H109.266C109.602 32.7701 109.921 32.8347 110.216 32.9611C110.514 33.0874 110.77 33.2608 110.991 33.4812C111.213 33.7016 111.387 33.9602 111.514 34.254C111.64 34.5508 111.705 34.8594 111.705 35.1826V38.553L111.708 38.5619ZM109.266 38.6823C109.346 38.6823 109.387 38.6412 109.387 38.5619V35.1914C109.387 35.1121 109.346 35.0709 109.266 35.0709H101.573C101.491 35.0709 101.452 35.1121 101.452 35.1914V38.5619C101.452 38.6441 101.494 38.6823 101.573 38.6823H109.266Z" fill="#1F1F1F"/>
<path d="M116 32.7583H113.696V45.2704H116V32.7583Z" fill="#1F1F1F"/>
<path d="M39.5457 34.2041C39.4189 33.9073 39.2449 33.6546 39.0237 33.4401C38.8024 33.2256 38.5429 33.0551 38.2479 32.9258C37.95 32.7995 37.6344 32.7348 37.2981 32.7348H27.1809V45.2469H29.4816V41.042H37.4191V45.2469H39.7375V35.1503C39.7375 34.8153 39.6726 34.4979 39.5457 34.2041ZM37.4191 38.747H29.4816V35.1503C29.4816 35.068 29.5229 35.0298 29.6026 35.0298H37.2952C37.3748 35.0298 37.4161 35.0709 37.4161 35.1503V38.747H37.4191Z" fill="#1F1F1F"/>
<path d="M82.8492 34.2041C82.7224 33.9073 82.5454 33.6546 82.3271 33.4401C82.1059 33.2256 81.8463 33.0551 81.5514 32.9258C81.2535 32.7995 80.9379 32.7348 80.6016 32.7348H70.4844V45.2469H72.7851V41.042H80.7225V45.2469H83.0409V35.1503C83.0409 34.8153 82.976 34.4979 82.8492 34.2041ZM80.7225 38.747H72.7851V35.1503C72.7851 35.068 72.8264 35.0298 72.906 35.0298H80.5986C80.6783 35.0298 80.7196 35.0709 80.7196 35.1503V38.747H80.7225Z" fill="#1F1F1F"/>
<path d="M56.3113 32.7348V45.3233H65.9094C67.3163 45.3233 68.4549 44.1891 68.4549 42.7874V40.0693C68.4549 39.7402 68.3192 39.4228 68.0803 39.1966L67.8443 38.9703L68.1039 38.7117C68.331 38.4855 68.4578 38.1769 68.4578 37.8566V35.2708C68.4578 33.8691 67.3193 32.7348 65.9123 32.7348H56.3142H56.3113ZM66.1247 37.745H58.6415V35.0562H66.1247V37.745ZM58.6415 40.0664H66.1247V42.999H58.6415V40.0664Z" fill="#1F1F1F"/>
<path d="M30.1038 57.9912C29.5492 57.9912 29.0596 57.8589 28.6378 57.5945C28.216 57.33 27.8827 56.9627 27.6438 56.4925C27.4049 56.0224 27.2839 55.4817 27.2839 54.8646C27.2839 54.2475 27.4049 53.698 27.6438 53.2279C27.8827 52.7577 28.219 52.3904 28.6526 52.1259C29.0832 51.8615 29.5787 51.7292 30.1392 51.7292C30.5551 51.7292 30.9385 51.8086 31.2895 51.9673C31.6376 52.1259 31.9325 52.3493 32.1715 52.6372C32.4104 52.9252 32.5756 53.2631 32.6611 53.6481H32.2069C32.0712 53.175 31.8146 52.8018 31.44 52.5285C31.0654 52.2552 30.6229 52.1171 30.1156 52.1171C29.6407 52.1171 29.2218 52.2317 28.859 52.4639C28.4962 52.696 28.2131 53.0163 28.0095 53.4248C27.806 53.8332 27.7057 54.3122 27.7057 54.8587C27.7057 55.4053 27.806 55.8755 28.0095 56.2898C28.2131 56.7041 28.4962 57.0244 28.859 57.2507C29.2218 57.4799 29.6407 57.5915 30.1156 57.5915C30.6259 57.5915 31.0713 57.4593 31.4547 57.1978C31.8382 56.9363 32.1007 56.5895 32.2423 56.1546H32.6965C32.5992 56.519 32.4251 56.8364 32.1774 57.1126C31.9296 57.3859 31.6258 57.6004 31.2689 57.7532C30.912 57.906 30.5256 57.9824 30.1067 57.9824" fill="#1F1F1F"/>
<path d="M42.2623 54.8646C42.2623 55.4788 42.1384 56.0224 41.8936 56.4925C41.6488 56.9627 41.3096 57.33 40.8789 57.5974C40.4483 57.8648 39.9498 58 39.3835 58C38.8171 58 38.3275 57.8678 37.8909 57.5974C37.4574 57.33 37.1181 56.9598 36.8733 56.4925C36.6315 56.0224 36.5076 55.4817 36.5076 54.8646C36.5076 54.2475 36.6315 53.7069 36.8763 53.2367C37.1211 52.7665 37.4603 52.3992 37.8939 52.1318C38.3245 51.8644 38.8201 51.7292 39.3805 51.7292C39.9409 51.7292 40.4453 51.8644 40.876 52.1318C41.3066 52.3992 41.6458 52.7695 41.8906 53.2367C42.1355 53.7069 42.2593 54.2475 42.2593 54.8646M41.8405 54.8646C41.8405 54.3239 41.7373 53.8479 41.5278 53.4395C41.3184 53.0281 41.0293 52.7078 40.6606 52.4727C40.2919 52.2376 39.8642 52.123 39.3776 52.123C38.8909 52.123 38.472 52.2406 38.1033 52.4727C37.7346 52.7048 37.4456 53.0281 37.2361 53.4395C37.0267 53.8479 36.9235 54.3239 36.9235 54.8646C36.9235 55.4053 37.0267 55.8755 37.2361 56.2869C37.4456 56.6982 37.7346 57.0244 38.1033 57.2566C38.472 57.4916 38.8968 57.6062 39.3776 57.6062C39.8583 57.6062 40.2919 57.4887 40.6606 57.2566C41.0293 57.0244 41.3184 56.7012 41.5278 56.2869C41.7373 55.8755 41.8405 55.3994 41.8405 54.8646Z" fill="#1F1F1F"/>
<path d="M46.9169 57.8971H46.5039V51.8321H48.7515C49.3296 51.8321 49.7868 51.9849 50.129 52.2934C50.4682 52.602 50.6393 53.0134 50.6393 53.5305C50.6393 53.9743 50.5213 54.3445 50.2883 54.6442C50.0553 54.944 49.7337 55.135 49.3267 55.2202L50.6894 57.8942H50.2263L48.8961 55.2731H46.9169V57.8942V57.8971ZM46.9169 52.2082V54.8999H48.7692C49.2264 54.8999 49.5833 54.7794 49.837 54.5384C50.0907 54.2975 50.2175 53.9684 50.2175 53.5511C50.2175 53.1338 50.0848 52.7871 49.8193 52.555C49.5538 52.3258 49.1969 52.2082 48.7515 52.2082H46.9169Z" fill="#1F1F1F"/>
<path d="M57.2405 55.6169H55.3026V55.2407H57.1726C57.6475 55.2407 58.0192 55.0968 58.2876 54.8058C58.556 54.5149 58.6917 54.1447 58.6917 53.6951C58.6917 53.2455 58.559 52.8782 58.2935 52.6108C58.028 52.3434 57.6711 52.2082 57.2257 52.2082H54.9693V51.8321H57.2405C57.6298 51.8321 57.9631 51.9114 58.2404 52.0672C58.5177 52.2229 58.733 52.4433 58.8834 52.7254C59.0338 53.0075 59.1105 53.3366 59.1105 53.7127C59.1105 54.0653 59.0338 54.3886 58.8834 54.6795C58.733 54.9704 58.5147 55.1996 58.2345 55.3671C57.9543 55.5346 57.6239 55.6198 57.2405 55.6198M55.3793 57.9001H54.9663V51.835H55.3793V57.9001Z" fill="#1F1F1F"/>
<path d="M68.5936 54.8646C68.5936 55.4788 68.4697 56.0224 68.2249 56.4925C67.9801 56.9627 67.6409 57.33 67.2102 57.5974C66.7796 57.8648 66.2811 58 65.7148 58C65.1484 58 64.6588 57.8678 64.2222 57.5974C63.7886 57.33 63.4494 56.9598 63.2046 56.4925C62.9598 56.0253 62.8389 55.4817 62.8389 54.8646C62.8389 54.2475 62.9628 53.7069 63.2076 53.2367C63.4524 52.7665 63.7916 52.3992 64.2222 52.1318C64.6529 51.8644 65.1484 51.7292 65.7089 51.7292C66.2693 51.7292 66.7737 51.8644 67.2043 52.1318C67.635 52.3992 67.9742 52.7695 68.219 53.2367C68.4638 53.7039 68.5877 54.2475 68.5877 54.8646M68.1688 54.8646C68.1688 54.3239 68.0656 53.8479 67.8562 53.4395C67.6468 53.0281 67.3577 52.7078 66.989 52.4727C66.6203 52.2376 66.1926 52.123 65.7059 52.123C65.2192 52.123 64.8004 52.2406 64.4317 52.4727C64.063 52.7048 63.7739 53.0281 63.5645 53.4395C63.3551 53.8479 63.2518 54.3239 63.2518 54.8646C63.2518 55.4053 63.3551 55.8755 63.5645 56.2869C63.7739 56.6982 64.063 57.0244 64.4317 57.2566C64.8004 57.4916 65.2251 57.6062 65.7059 57.6062C66.1867 57.6062 66.6203 57.4887 66.989 57.2566C67.3577 57.0244 67.6468 56.7012 67.8562 56.2869C68.0656 55.8755 68.1688 55.3994 68.1688 54.8646Z" fill="#1F1F1F"/>
<path d="M73.2482 57.8971H72.8352V51.8321H75.0828C75.661 51.8321 76.1181 51.9849 76.4603 52.2934C76.7995 52.602 76.9706 53.0134 76.9706 53.5305C76.9706 53.9743 76.8526 54.3445 76.6196 54.6442C76.3866 54.944 76.065 55.135 75.658 55.2202L77.0207 57.8942H76.5576L75.2274 55.2731H73.2482V57.8942V57.8971ZM73.2482 52.2082V54.8999H75.1005C75.5577 54.8999 75.9146 54.7794 76.1683 54.5384C76.422 54.2975 76.5488 53.9684 76.5488 53.5511C76.5488 53.1338 76.4161 52.7871 76.1506 52.555C75.8851 52.3258 75.5282 52.2082 75.0828 52.2082H73.2482Z" fill="#1F1F1F"/>
<path d="M81.0704 57.8971H80.6575L82.9139 51.8321H83.5216L85.8016 57.8971H85.3828L84.7398 56.1958H81.7046L81.0704 57.8971ZM83.1617 52.267L81.8403 55.8196H84.6011L83.2649 52.267C83.259 52.2376 83.2502 52.2112 83.2384 52.1847C83.2266 52.1583 83.2177 52.1348 83.2118 52.1112C83.2059 52.1289 83.2 52.1524 83.1912 52.1847C83.1824 52.217 83.1735 52.2435 83.1617 52.267Z" fill="#1F1F1F"/>
<path d="M88.5449 51.8321H92.7806V52.2082H88.5449V51.8321ZM90.8692 57.8971H90.4563V52.0025H90.8692V57.8971Z" fill="#1F1F1F"/>
<path d="M97.14 51.8321H96.7271V57.8971H97.14V51.8321Z" fill="#1F1F1F"/>
<path d="M107.136 54.8646C107.136 55.4788 107.012 56.0224 106.768 56.4925C106.523 56.9627 106.184 57.33 105.75 57.5974C105.319 57.8648 104.821 58 104.255 58C103.688 58 103.196 57.8678 102.762 57.5974C102.328 57.33 101.989 56.9598 101.744 56.4925C101.503 56.0224 101.379 55.4817 101.379 54.8646C101.379 54.2475 101.503 53.7069 101.747 53.2367C101.992 52.7665 102.331 52.3992 102.765 52.1318C103.196 51.8644 103.691 51.7292 104.252 51.7292C104.812 51.7292 105.316 51.8644 105.747 52.1318C106.178 52.3992 106.517 52.7695 106.765 53.2367C107.012 53.7039 107.133 54.2475 107.133 54.8646M106.715 54.8646C106.715 54.3239 106.611 53.8479 106.402 53.4395C106.192 53.0281 105.903 52.7078 105.535 52.4727C105.166 52.2376 104.738 52.123 104.255 52.123C103.771 52.123 103.349 52.2406 102.98 52.4727C102.612 52.7048 102.323 53.0281 102.113 53.4395C101.904 53.8479 101.8 54.3239 101.8 54.8646C101.8 55.4053 101.904 55.8755 102.113 56.2869C102.323 56.6982 102.612 57.0244 102.98 57.2566C103.349 57.4916 103.774 57.6062 104.255 57.6062C104.735 57.6062 105.169 57.4887 105.535 57.2566C105.903 57.0244 106.192 56.7012 106.402 56.2869C106.611 55.8755 106.715 55.3994 106.715 54.8646Z" fill="#1F1F1F"/>
<path d="M111.791 57.8971H111.378V51.8321H111.8L115.443 57.3241H115.366V51.8321H115.779V57.8971H115.366L111.723 52.4051H111.791V57.8971Z" fill="#1F1F1F"/>
</g>
<defs>
<clipPath id="clip0_3357_290">
<rect width="116" height="58" fill="white"/>
</clipPath>
</defs>
</svg>
